<svg height='300px' width='300px'  fill="#000000" xmlns:dc="http://purl.org/dc/elements/1.1/" xmlns:cc="http://creativecommons.org/ns#" xmlns:rdf="http://www.w3.org/1999/02/22-rdf-syntax-ns#" xmlns:svg="http://www.w3.org/2000/svg" xmlns="http://www.w3.org/2000/svg" xmlns:sodipodi="http://sodipodi.sourceforge.net/DTD/sodipodi-0.dtd" xmlns:inkscape="http://www.inkscape.org/namespaces/inkscape" viewBox="0 0 19.84375 19.84375" version="1.1" x="0px" y="0px"><g transform="translate(0,-277.15625)"><path style="opacity:1;fill:#000000;fill-opacity:1;stroke:none;stroke-width:0.32404697;stroke-linecap:round;stroke-linejoin:bevel;stroke-miterlimit:4;stroke-dasharray:none;stroke-opacity:1" d="m 1.3229166,278.47917 v 17.19791 h 3.96875 v -1.32291 H 2.9765625 V 293.825 h 2.3151041 v -2.11667 H 2.9765625 v -0.52916 H 5.2916666 V 289.0625 H 2.9765625 v -0.52917 h 2.3151041 v -2.11666 H 2.9765625 v -0.52917 h 2.3151041 v -2.11667 H 2.9765625 v -0.52916 H 5.2916666 V 281.125 H 2.9765625 v -0.52917 h 2.3151041 v -2.11666 z"></path><path style="opacity:1;fill:none;fill-opacity:0.6;stroke:#000000;stroke-width:0.80000001;stroke-linecap:round;stroke-linejoin:round;stroke-miterlimit:4;stroke-dasharray:none;stroke-opacity:1;paint-order:normal" clip-path="none" d="m 17.99434,285.09439 c 0.03258,0.85772 -0.95325,1.51158 -1.741407,1.207 -0.514529,-0.1589 -0.897486,-0.66947 -0.907099,-1.20764"></path><path style="opacity:1;fill:none;fill-opacity:0.6;stroke:#000000;stroke-width:0.80000001;stroke-linecap:round;stroke-linejoin:round;stroke-miterlimit:4;stroke-dasharray:none;stroke-opacity:1;paint-order:normal" clip-path="none" d="m 15.348507,285.09439 c 0.03258,0.85772 -0.95325,1.51158 -1.741406,1.207 -0.51453,-0.1589 -0.897487,-0.66947 -0.907101,-1.20764"></path><path style="opacity:1;fill:none;fill-opacity:0.6;stroke:#000000;stroke-width:0.80000001;stroke-linecap:round;stroke-linejoin:round;stroke-miterlimit:4;stroke-dasharray:none;stroke-opacity:1;paint-order:normal" clip-path="none" d="m 12.702674,285.09439 c 0.03258,0.85772 -0.95325,1.51158 -1.741406,1.207 -0.51453,-0.1589 -0.897487,-0.66947 -0.907101,-1.20764"></path><path style="opacity:1;fill:none;fill-opacity:0.6;stroke:#000000;stroke-width:0.80000001;stroke-linecap:round;stroke-linejoin:round;stroke-miterlimit:4;stroke-dasharray:none;stroke-opacity:1;paint-order:normal" clip-path="none" d="m 10.05684,285.09439 c 0.03258,0.85771 -0.9532489,1.51158 -1.7414059,1.207 -0.5145291,-0.1589 -0.897487,-0.66947 -0.9071009,-1.20764"></path><path style="opacity:1;fill:none;fill-opacity:0.6;stroke:#000000;stroke-width:0.80000001;stroke-linecap:round;stroke-linejoin:round;stroke-miterlimit:4;stroke-dasharray:none;stroke-opacity:1;paint-order:normal" clip-path="none" d="m 17.99434,289.06314 c 0.03258,0.85772 -0.95325,1.51158 -1.741407,1.207 -0.514529,-0.1589 -0.897486,-0.66947 -0.907099,-1.20764"></path><path style="opacity:1;fill:none;fill-opacity:0.6;stroke:#000000;stroke-width:0.80000001;stroke-linecap:round;stroke-linejoin:round;stroke-miterlimit:4;stroke-dasharray:none;stroke-opacity:1;paint-order:normal" clip-path="none" d="m 15.348507,289.06314 c 0.03258,0.85772 -0.95325,1.51158 -1.741406,1.207 -0.51453,-0.1589 -0.897487,-0.66947 -0.907101,-1.20764"></path><path style="opacity:1;fill:none;fill-opacity:0.6;stroke:#000000;stroke-width:0.80000001;stroke-linecap:round;stroke-linejoin:round;stroke-miterlimit:4;stroke-dasharray:none;stroke-opacity:1;paint-order:normal" clip-path="none" d="m 12.702674,289.06314 c 0.03258,0.85772 -0.95325,1.51158 -1.741406,1.207 -0.51453,-0.1589 -0.897487,-0.66947 -0.907101,-1.20764"></path><path style="opacity:1;fill:none;fill-opacity:0.6;stroke:#000000;stroke-width:0.80000001;stroke-linecap:round;stroke-linejoin:round;stroke-miterlimit:4;stroke-dasharray:none;stroke-opacity:1;paint-order:normal" clip-path="none" d="m 10.05684,289.06314 c 0.03258,0.85771 -0.9532489,1.51158 -1.7414059,1.207 -0.5145291,-0.1589 -0.897487,-0.66947 -0.9071009,-1.20764"></path><path style="opacity:1;fill:none;fill-opacity:0.6;stroke:#000000;stroke-width:0.80000001;stroke-linecap:round;stroke-linejoin:round;stroke-miterlimit:4;stroke-dasharray:none;stroke-opacity:1;paint-order:normal" clip-path="none" d="m 17.99434,293.03189 c 0.03258,0.85772 -0.95325,1.51158 -1.741407,1.207 -0.514529,-0.1589 -0.897486,-0.66947 -0.907099,-1.20764"></path><path style="opacity:1;fill:none;fill-opacity:0.6;stroke:#000000;stroke-width:0.80000001;stroke-linecap:round;stroke-linejoin:round;stroke-miterlimit:4;stroke-dasharray:none;stroke-opacity:1;paint-order:normal" clip-path="none" d="m 15.348507,293.03189 c 0.03258,0.85772 -0.95325,1.51158 -1.741406,1.207 -0.51453,-0.1589 -0.897487,-0.66947 -0.907101,-1.20764"></path><path style="opacity:1;fill:none;fill-opacity:0.6;stroke:#000000;stroke-width:0.80000001;stroke-linecap:round;stroke-linejoin:round;stroke-miterlimit:4;stroke-dasharray:none;stroke-opacity:1;paint-order:normal" clip-path="none" d="m 12.702674,293.03189 c 0.03258,0.85772 -0.95325,1.51158 -1.741406,1.207 -0.51453,-0.1589 -0.897487,-0.66947 -0.907101,-1.20764"></path><path style="opacity:1;fill:none;fill-opacity:0.6;stroke:#000000;stroke-width:0.80000001;stroke-linecap:round;stroke-linejoin:round;stroke-miterlimit:4;stroke-dasharray:none;stroke-opacity:1;paint-order:normal" clip-path="none" d="m 10.05684,293.03189 c 0.03258,0.85771 -0.9532489,1.51158 -1.7414059,1.207 -0.5145291,-0.1589 -0.897487,-0.66947 -0.9071009,-1.20764"></path></g></svg>